<svg xmlns="http://www.w3.org/2000/svg" viewBox="0 0 512 512" width="512" height="512">
  <rect width="512" height="512" rx="112" fill="#1d4ed8" />
  <!-- Letter C -->
  <path d="M 199 140 L 242 140 L 242 188 L 199 188 A 68 68 0 1 0 199 324 L 242 324 L 242 372 L 199 372 A 116 116 0 1 1 199 140 Z" fill="#ffffff" />
  <!-- Letter P -->
  <path d="M 269 140 L 361 140 A 68 68 0 0 1 361 276 L 317 276 L 317 372 L 269 372 Z M 317 188 L 361 188 A 20 20 0 0 1 361 228 L 317 228 Z" fill="#ffffff" fill-rule="evenodd" />
</svg>